<?xml version="1.0" encoding="UTF-8"?>
<svg id="Layer_1" data-name="Layer 1" xmlns="http://www.w3.org/2000/svg" viewBox="0 0 48 48">
  <defs>
    <style>
      .cls-1 {
        fill: #fff;
      }

      .cls-2 {
        fill: #b90000;
      }
    </style>
  </defs>
  <rect class="cls-1" width="48" height="48"/>
  <g>
    <path class="cls-2" d="M20.6,22.43v4.21h2.24v4.51h-2.24v3.37h-5.13v-3.37H4.27v-9.34c2.61-.3,4.65-1.15,6.12-2.57,1.47-1.41,2.28-3.33,2.42-5.76h5.13c-.12,3.52-1.25,6.38-3.4,8.58-2.15,2.2-5.15,3.63-9.01,4.28v1.25l3.43-.96h6.51v-4.21h5.13Z"/>
    <path class="cls-2" d="M41.49,22.43v4.21h2.24v4.51h-2.24v3.37h-5.13v-3.37h-11.19v-9.34c2.61-.3,4.65-1.15,6.12-2.57,1.47-1.41,2.28-3.33,2.42-5.76h5.13c-.12,3.52-1.25,6.38-3.4,8.58-2.15,2.2-5.15,3.63-9.01,4.28v1.25l3.43-.96h6.51v-4.21h5.13Z"/>
  </g>
</svg>