<svg width="252" height="20" viewBox="0 0 252 20" fill="none" xmlns="http://www.w3.org/2000/svg">
<g clip-path="url(#clip0_1_83)">
<path d="M14.4559 8.56796V12.4147H16.443V16.5344H14.4559V19.6175H9.89888V16.5344H-0.0367432V7.99352C2.27719 7.72049 4.08713 6.93925 5.39438 5.6471C6.70163 4.35629 7.41694 2.60053 7.54032 0.381165H12.0973C11.991 3.60074 10.9843 6.21613 9.07726 8.226C7.16888 10.2359 4.50188 11.5415 1.07626 12.1417V13.2878L4.12388 12.4147H9.90019V8.56796H14.4572H14.4559Z" fill="#B90000"/>
<path d="M33.0028 8.56796V12.4147H34.9899V16.5344H33.0028V19.6175H28.4458V16.5344H18.5101V7.99352C20.8241 7.72049 22.634 6.93925 23.9413 5.6471C25.2485 4.35629 25.9638 2.60053 26.0872 0.381165H30.6442C30.5379 3.60074 29.5312 6.21613 27.6241 8.226C25.7158 10.2359 23.0488 11.5415 19.6231 12.1417V13.2878L22.6708 12.4147H28.4471V8.56796H33.0041H33.0028Z" fill="#B90000"/>
<path d="M37.5073 0.382507H45.5884C47.4259 0.382507 48.8998 0.514967 50.0128 0.778534C51.1258 1.0421 51.9645 1.51111 52.5302 2.18422C53.0959 2.85733 53.378 3.80347 53.378 5.02129C53.378 6.13097 53.1523 6.95816 52.7021 7.50422C52.2519 8.05028 51.7348 8.40035 51.152 8.55443C50.5693 8.70987 49.7831 8.83152 48.7935 8.92343V10.0696C50.0469 10.1237 51.0759 10.2386 51.8805 10.4102C52.6837 10.5832 53.3649 10.9792 53.9201 11.5969C54.4766 12.216 54.7549 13.1527 54.7549 14.407C54.7549 15.8437 54.3742 16.944 53.6156 17.709C52.8557 18.4727 51.8359 18.9822 50.5549 19.2363C49.2739 19.4918 47.6805 19.6188 45.7721 19.6188H37.506V0.382507H37.5073ZM46.0648 7.66777C46.7709 7.66777 47.2789 7.6502 47.5886 7.6137C47.897 7.57721 48.1622 7.44069 48.384 7.20416C48.6045 6.96763 48.7147 6.57701 48.7147 6.03095C48.7147 5.48489 48.6084 5.11725 48.3971 4.87125C48.1858 4.62526 47.9154 4.48064 47.5886 4.43468C47.2618 4.39008 46.7539 4.3671 46.0648 4.3671H42.3557V7.66912H46.0648V7.66777ZM46.0385 15.3883C47.1161 15.3883 47.8839 15.3612 48.3433 15.3058C48.8027 15.2517 49.1728 15.0882 49.4563 14.8152C49.7385 14.5421 49.8802 14.088 49.8802 13.4514C49.8802 12.8148 49.7345 12.3606 49.4432 12.0876C49.1518 11.8146 48.7804 11.6551 48.3302 11.6105C47.88 11.5659 47.1161 11.5429 46.0385 11.5429H42.3557V15.3896H46.0385V15.3883Z" fill="#B90000"/>
<path d="M99.4259 0.382507H104.248V7.74887H105.281L111.349 0.382507H117.151L109.414 9.60465L117.336 19.6188H111.242L105.227 11.5969H104.247V19.6188H99.4246V0.382507H99.4259Z" fill="#B90000"/>
<path d="M131.988 0.382507V4.72122H127.722V15.2531H131.988V19.6188H118.661V15.2531H122.926V4.71987H118.661V0.382507H131.988Z" fill="#B90000"/>
<path d="M134.796 0.382507H144.256L148.866 18.3902H150.058L149.132 15.3612V0.382507H153.954V19.6188H144.494L139.884 1.61113H138.692L139.619 4.64013V19.6202H134.796V0.382507Z" fill="#B90000"/>
<path d="M160.416 18.7592C159.074 17.9496 158.041 16.8034 157.316 15.3207C156.592 13.8379 156.229 12.1146 156.229 10.1507C156.229 8.07732 156.627 6.27695 157.421 4.74827C158.217 3.22093 159.343 2.04772 160.8 1.22863C162.257 0.409549 163.948 0.00135803 165.874 0.00135803C167.517 0.00135803 169.013 0.306825 170.365 0.915057C171.717 1.52464 172.825 2.37481 173.69 3.46693C174.555 4.55769 175.094 5.82281 175.305 7.25959H170.351C170.192 6.36887 169.719 5.6498 168.933 5.10374C168.147 4.55769 167.215 4.28466 166.138 4.28466C164.584 4.28466 163.373 4.79422 162.507 5.812C161.642 6.83112 161.209 8.25033 161.209 10.0683C161.209 11.8862 161.637 13.2013 162.494 14.1745C163.351 15.1477 164.653 15.6343 166.403 15.6343C167.762 15.6343 168.862 15.3531 169.701 14.7881C170.54 14.2245 171.003 13.469 171.092 12.5242H166.588V8.73151H173.45C174.244 8.73151 174.862 8.95993 175.304 9.41408C175.745 9.86957 175.967 10.5062 175.967 11.3239V19.6188H171.171V18.3091L172.099 14.8436H170.88C170.897 14.8976 170.906 15.026 170.906 15.2261C170.906 15.8451 170.755 16.5128 170.456 17.2319C170.155 17.9509 169.582 18.5876 168.734 19.1417C167.886 19.6959 166.694 19.9743 165.157 19.9743C163.338 19.9743 161.756 19.5702 160.415 18.7606L160.416 18.7592Z" fill="#B90000"/>
<path d="M178.963 0.382507H187.044C188.882 0.382507 190.356 0.514967 191.469 0.778534C192.582 1.0421 193.421 1.51111 193.986 2.18422C194.552 2.85733 194.834 3.80347 194.834 5.02129C194.834 6.13097 194.608 6.95816 194.158 7.50422C193.708 8.05028 193.191 8.40035 192.608 8.55443C192.025 8.70987 191.239 8.83152 190.25 8.92343V10.0696C191.503 10.1237 192.532 10.2386 193.337 10.4102C194.14 10.5832 194.821 10.9792 195.376 11.5969C195.933 12.216 196.211 13.1527 196.211 14.407C196.211 15.8437 195.83 16.944 195.072 17.709C194.312 18.4727 193.292 18.9822 192.011 19.2363C190.73 19.4918 189.137 19.6188 187.228 19.6188H178.962V0.382507H178.963ZM187.522 7.66777C188.228 7.66777 188.736 7.6502 189.046 7.6137C189.354 7.57721 189.62 7.44069 189.841 7.20416C190.062 6.96763 190.172 6.57701 190.172 6.03095C190.172 5.48489 190.066 5.11725 189.854 4.87125C189.643 4.62526 189.373 4.48064 189.046 4.43468C188.719 4.39008 188.211 4.3671 187.522 4.3671H183.813V7.66912H187.522V7.66777ZM187.495 15.3883C188.572 15.3883 189.34 15.3612 189.799 15.3058C190.259 15.2517 190.629 15.0882 190.912 14.8152C191.195 14.5421 191.336 14.088 191.336 13.4514C191.336 12.8148 191.191 12.3606 190.899 12.0876C190.608 11.8146 190.236 11.6551 189.786 11.6105C189.336 11.5659 188.572 11.5429 187.495 11.5429H183.812V15.3896H187.495V15.3883Z" fill="#B90000"/>
<path d="M211.05 0.382507V4.72122H206.784V15.2531H211.05V19.6188H197.723V15.2531H201.989V4.71987H197.723V0.382507H211.05Z" fill="#B90000"/>
<path d="M213.857 0.382507H222.097C224.587 0.382507 226.606 0.750149 228.152 1.48814C229.698 2.22477 230.47 3.55748 230.47 5.48489C230.47 7.88538 229.039 9.31405 226.178 9.76819V10.9414H228.191C228.987 10.9414 229.6 11.1969 230.033 11.7051C230.466 12.2146 230.682 12.9148 230.682 13.8055V19.6175H225.886V13.0959H218.706V19.6175H213.857V0.382507ZM222.097 8.78556C222.962 8.78556 223.634 8.74501 224.111 8.66256C224.587 8.58011 224.966 8.39494 225.25 8.10299C225.532 7.81239 225.674 7.35689 225.674 6.7392C225.674 6.12151 225.528 5.66601 225.237 5.37541C224.945 5.08481 224.561 4.90234 224.084 4.82935C223.608 4.75637 222.945 4.71987 222.097 4.71987H218.706V8.78556H222.097Z" fill="#B90000"/>
<path d="M233.622 4.86991C234.418 3.35068 235.561 2.1599 237.053 1.29621C238.546 0.43252 240.281 0 242.26 0C244.239 0 245.965 0.43252 247.44 1.29621C248.916 2.1599 250.05 3.35203 250.845 4.86991C251.64 6.38913 252.037 8.09353 252.037 9.98581C252.037 11.8781 251.639 13.6109 250.845 15.1287C250.05 16.648 248.916 17.8388 247.44 18.7024C245.965 19.5661 244.239 19.9986 242.26 19.9986C240.281 19.9986 238.546 19.5661 237.053 18.7024C235.561 17.8388 234.416 16.6466 233.622 15.1287C232.827 13.6095 232.431 11.8957 232.431 9.98581C232.431 8.07596 232.828 6.38913 233.622 4.86991ZM238.644 14.065C239.466 15.0206 240.671 15.4977 242.261 15.4977C243.852 15.4977 245.052 15.0206 245.864 14.065C246.677 13.1108 247.083 11.751 247.083 9.98581C247.083 8.22058 246.677 6.86626 245.864 5.92012C245.052 4.97533 243.851 4.50091 242.261 4.50091C240.672 4.50091 239.466 4.97398 238.644 5.92012C237.822 6.86626 237.412 8.22194 237.412 9.98581C237.412 11.7497 237.822 13.1094 238.644 14.065Z" fill="#B90000"/>
<path d="M74.9818 0.383865C74.823 0.833957 74.6353 1.26918 74.4148 1.68818C73.6207 3.20876 72.4841 4.40225 71.0115 5.26458C69.5349 6.12692 67.8103 6.56214 65.8323 6.56214C63.8544 6.56214 62.118 6.12692 60.623 5.26458C59.132 4.40225 57.9875 3.20876 57.1935 1.68818C56.973 1.26783 56.7853 0.832605 56.6265 0.383865H62.0261C62.0838 0.466315 62.1455 0.547412 62.2138 0.625806C63.0328 1.58141 64.239 2.05718 65.831 2.05718C67.4231 2.05718 68.6214 1.58141 69.4338 0.625806C69.4995 0.547412 69.5638 0.466315 69.6215 0.383865H74.9818Z" fill="#B90000"/>
<path d="M75.6066 17.5319C75.6066 18.2564 75.5527 18.9525 75.4372 19.6175H70.4196C70.5784 18.9998 70.6545 18.301 70.6545 17.5319C70.6545 15.7694 70.2463 14.4137 69.4339 13.4649C68.6214 12.5201 67.4192 12.0484 65.8311 12.0484C64.2429 12.0484 63.0341 12.5201 62.2138 13.4649C61.3909 14.4124 60.9787 15.7694 60.9787 17.5319C60.9787 18.301 61.0575 18.9998 61.2137 19.6175H56.1671C56.0516 18.9525 55.9978 18.2564 55.9978 17.5319C55.9978 15.6397 56.3955 13.9339 57.1922 12.4174C57.9862 10.8968 59.1307 9.70738 60.6217 8.84099C62.1167 7.97865 63.8492 7.54749 65.8311 7.54749C67.8129 7.54749 69.5349 7.97865 71.0102 8.84099C72.4828 9.70738 73.6194 10.8968 74.4135 12.4174C75.2076 13.9339 75.6052 15.6397 75.6052 17.5319H75.6066Z" fill="#B90000"/>
<path d="M97.1486 2.80733C97.1486 4.71853 96.7509 6.43104 95.9542 7.95162C95.1601 9.46814 94.0261 10.6616 92.5509 11.524C91.0743 12.3904 89.3497 12.8215 87.3705 12.8215C85.3912 12.8215 83.6561 12.3904 82.1651 11.524C80.6701 10.6616 79.527 9.46814 78.7329 7.95162C77.9388 6.43104 77.5411 4.71718 77.5411 2.80733C77.5411 1.96392 77.6199 1.15699 77.78 0.383865H82.8581C82.6336 1.08266 82.5221 1.88958 82.5221 2.80733C82.5221 4.57255 82.9342 5.92958 83.7532 6.88518C84.5761 7.84078 85.7823 8.32061 87.3705 8.32061C88.9586 8.32061 90.1608 7.84078 90.9733 6.88518C91.7857 5.92958 92.1939 4.57255 92.1939 2.80733C92.1939 1.88958 92.0823 1.08266 91.8618 0.383865H96.911C97.0698 1.15699 97.1499 1.96392 97.1499 2.80733H97.1486Z" fill="#B90000"/>
<path d="M96.3835 19.6161H90.871C90.0625 18.743 88.897 18.3078 87.3692 18.3078C85.8415 18.3078 84.6733 18.743 83.857 19.6161H78.3011C78.4271 19.2958 78.5715 18.9836 78.7303 18.6754C79.5244 17.1548 80.6689 15.9654 82.1625 15.099C83.6535 14.2367 85.39 13.8055 87.3679 13.8055C89.3458 13.8055 91.0718 14.2367 92.5483 15.099C94.0249 15.9654 95.1576 17.1548 95.9516 18.6754C96.1105 18.9836 96.2548 19.2958 96.3808 19.6161H96.3835Z" fill="#B90000"/>
</g>
<defs>
<clipPath id="clip0_1_83">
<rect width="252" height="20" fill="white"/>
</clipPath>
</defs>
</svg>
