<svg width="1380" height="106" viewBox="0 0 1380 106" fill="none" xmlns="http://www.w3.org/2000/svg">
<g clip-path="url(#clip0_1_37)">
<path d="M79.163 45.4102V65.7978H90.0449V87.6325H79.163V103.973H54.208V87.6325H-0.201385V42.3656C12.4702 40.9186 22.3817 36.778 29.5405 29.9296C36.6992 23.0883 40.6164 13.7828 41.2921 2.02014H66.247C65.6649 19.0839 60.1521 32.9455 49.7086 43.5978C39.258 54.2501 24.653 61.1701 5.89361 64.3507V70.4255L22.583 65.7978H54.2152V45.4102H79.1702H79.163Z" fill="#B90000"/>
<path d="M180.73 45.4102V65.7978H191.612V87.6325H180.73V103.973H155.775V87.6325H101.365V42.3656C114.037 40.9186 123.948 36.778 131.107 29.9296C138.266 23.0883 142.183 13.7828 142.859 2.02014H167.814C167.232 19.0839 161.719 32.9455 151.275 43.5978C140.825 54.2501 126.22 61.1701 107.46 64.3507V70.4255L124.15 65.7978H155.782V45.4102H180.737H180.73Z" fill="#B90000"/>
<path d="M205.397 2.02728H249.651C259.713 2.02728 267.785 2.72932 273.88 4.12622C279.975 5.52313 284.568 8.0089 287.665 11.5764C290.763 15.1439 292.308 20.1584 292.308 26.6128C292.308 32.4941 291.072 36.8783 288.607 39.7724C286.142 42.6665 283.31 44.5218 280.118 45.3385C276.927 46.1623 272.622 46.807 267.203 47.2942V53.3689C274.067 53.6554 279.702 54.2644 284.108 55.1741C288.506 56.0911 292.237 58.19 295.277 61.4638C298.324 64.7447 299.848 69.7091 299.848 76.3569C299.848 83.9719 297.764 89.803 293.609 93.8577C289.448 97.9051 283.863 100.606 276.848 101.953C269.833 103.306 261.108 103.98 250.657 103.98H205.39V2.02728H205.397ZM252.26 40.6392C256.127 40.6392 258.908 40.546 260.604 40.3526C262.293 40.1592 263.745 39.4357 264.96 38.182C266.168 36.9284 266.771 34.8581 266.771 31.964C266.771 29.0699 266.189 27.1214 265.032 25.8176C263.875 24.5139 262.394 23.7474 260.604 23.5038C258.815 23.2674 256.033 23.1456 252.26 23.1456H231.948V40.6463H252.26V40.6392ZM252.116 81.5577C258.017 81.5577 262.222 81.4145 264.737 81.1207C267.253 80.8342 269.28 79.9674 270.832 78.5204C272.378 77.0733 273.154 74.6663 273.154 71.2923C273.154 67.9182 272.356 65.5112 270.76 64.0642C269.165 62.6171 267.131 61.7718 264.665 61.5354C262.2 61.299 258.017 61.1772 252.116 61.1772H231.948V81.5649H252.116V81.5577Z" fill="#B90000"/>
<path d="M544.475 2.02728H570.882V41.069H576.538L609.766 2.02728H641.542L599.172 50.9046L642.555 103.98H609.184L576.243 61.4638H570.874V103.98H544.468V2.02728H544.475Z" fill="#B90000"/>
<path d="M722.789 2.02728V25.0225H699.43V80.8414H722.789V103.98H649.807V80.8414H673.167V25.0153H649.807V2.02728H722.789Z" fill="#B90000"/>
<path d="M738.171 2.02728H789.971L815.221 97.4681H821.747L816.673 81.4145V2.02728H843.079V103.98H791.279L766.029 8.53901H759.503L764.578 24.5927V103.987H738.171V2.02728Z" fill="#B90000"/>
<path d="M878.471 99.4238C871.118 95.1328 865.461 89.058 861.494 81.1995C857.526 73.3411 855.542 64.2075 855.542 53.7987C855.542 42.8097 857.72 33.2678 862.069 25.1658C866.424 17.0709 872.591 10.8529 880.569 6.5117C888.548 2.17055 897.812 0.00714111 908.356 0.00714111C917.355 0.00714111 925.549 1.62612 932.952 4.84974C940.355 8.08053 946.421 12.5864 951.158 18.3746C955.894 24.1557 958.848 30.8608 960.006 38.4757H932.873C932.003 33.7549 929.416 29.9439 925.11 27.0498C920.805 24.1557 915.702 22.7086 909.801 22.7086C901.291 22.7086 894.664 25.4093 889.92 30.8035C885.184 36.2049 882.812 43.7267 882.812 53.3617C882.812 62.9968 885.155 69.967 889.848 75.1248C894.542 80.2826 901.672 82.8615 911.253 82.8615C918.699 82.8615 924.722 81.3715 929.315 78.3771C933.908 75.3899 936.445 71.3854 936.934 66.378H912.266V46.2769H949.843C954.191 46.2769 957.576 47.4876 959.998 49.8946C962.413 52.3087 963.628 55.6827 963.628 60.0167V103.98H937.365V97.0383L942.447 78.6708H935.769C935.863 78.9573 935.913 79.6379 935.913 80.6981C935.913 83.979 935.087 87.5178 933.448 91.3289C931.802 95.1399 928.661 98.514 924.018 101.451C919.375 104.388 912.848 105.864 904.432 105.864C894.47 105.864 885.809 103.722 878.463 99.4309L878.471 99.4238Z" fill="#B90000"/>
<path d="M980.037 2.02728H1024.29C1034.35 2.02728 1042.42 2.72932 1048.52 4.12622C1054.61 5.52313 1059.21 8.0089 1062.31 11.5764C1065.4 15.1439 1066.95 20.1584 1066.95 26.6128C1066.95 32.4941 1065.71 36.8783 1063.25 39.7724C1060.78 42.6665 1057.95 44.5218 1054.76 45.3385C1051.57 46.1623 1047.26 46.807 1041.84 47.2942V53.3689C1048.71 53.6554 1054.34 54.2644 1058.75 55.1741C1063.15 56.0911 1066.88 58.19 1069.92 61.4638C1072.96 64.7447 1074.49 69.7091 1074.49 76.3569C1074.49 83.9719 1072.4 89.803 1068.25 93.8577C1064.09 97.9051 1058.5 100.606 1051.49 101.953C1044.47 103.306 1035.75 103.98 1025.3 103.98H980.03V2.02728H980.037ZM1026.91 40.6392C1030.77 40.6392 1033.56 40.546 1035.25 40.3526C1036.94 40.1592 1038.39 39.4357 1039.61 38.182C1040.81 36.9284 1041.42 34.8581 1041.42 31.964C1041.42 29.0699 1040.84 27.1214 1039.68 25.8176C1038.52 24.5139 1037.04 23.7474 1035.25 23.5038C1033.46 23.2674 1030.68 23.1456 1026.91 23.1456H1006.6V40.6463H1026.91V40.6392ZM1026.76 81.5577C1032.66 81.5577 1036.86 81.4145 1039.38 81.1207C1041.89 80.8342 1043.92 79.9674 1045.47 78.5204C1047.02 77.0733 1047.79 74.6663 1047.79 71.2923C1047.79 67.9182 1047 65.5112 1045.4 64.0642C1043.8 62.6171 1041.77 61.7718 1039.31 61.5354C1036.84 61.299 1032.66 61.1772 1026.76 61.1772H1006.59V81.5649H1026.76V81.5577Z" fill="#B90000"/>
<path d="M1155.75 2.02728V25.0225H1132.39V80.8414H1155.75V103.98H1082.77V80.8414H1106.13V25.0153H1082.77V2.02728H1155.75Z" fill="#B90000"/>
<path d="M1171.12 2.02728H1216.25C1229.88 2.02728 1240.94 3.97579 1249.4 7.88712C1257.87 11.7913 1262.1 18.8546 1262.1 29.0699C1262.1 41.7925 1254.26 49.3644 1238.59 51.7714V57.9894H1249.62C1253.97 57.9894 1257.33 59.3434 1259.7 62.0369C1262.07 64.7376 1263.26 68.4483 1263.26 73.1691V103.973H1237V69.4082H1197.67V103.973H1171.12V2.02728ZM1216.25 46.5635C1220.98 46.5635 1224.66 46.3486 1227.27 45.9116C1229.88 45.4746 1231.96 44.4932 1233.51 42.9458C1235.06 41.4057 1235.83 38.9915 1235.83 35.7178C1235.83 32.444 1235.04 30.0299 1233.44 28.4897C1231.84 26.9495 1229.74 25.9824 1227.13 25.5956C1224.52 25.2087 1220.89 25.0153 1216.25 25.0153H1197.67V46.5635H1216.25Z" fill="#B90000"/>
<path d="M1279.36 25.8105C1283.72 17.7586 1289.98 11.4475 1298.15 6.86991C1306.32 2.29236 1315.82 0 1326.66 0C1337.5 0 1346.95 2.29236 1355.03 6.86991C1363.11 11.4475 1369.32 17.7658 1373.67 25.8105C1378.03 33.8624 1380.2 42.8957 1380.2 52.9248C1380.2 62.9538 1378.02 72.1376 1373.67 80.1823C1369.32 88.2342 1363.11 94.5454 1355.03 99.1229C1346.95 103.7 1337.5 105.993 1326.66 105.993C1315.82 105.993 1306.32 103.7 1298.15 99.1229C1289.98 94.5454 1283.71 88.2271 1279.36 80.1823C1275 72.1304 1272.83 63.047 1272.83 52.9248C1272.83 42.8026 1275.01 33.8624 1279.36 25.8105ZM1306.86 74.5446C1311.36 79.6092 1317.96 82.138 1326.67 82.138C1335.38 82.138 1341.95 79.6092 1346.4 74.5446C1350.85 69.4871 1353.08 62.2805 1353.08 52.9248C1353.08 43.5691 1350.85 36.3912 1346.4 31.3766C1341.95 26.3693 1335.37 23.8548 1326.67 23.8548C1317.96 23.8548 1311.36 26.3621 1306.86 31.3766C1302.36 36.3912 1300.11 43.5763 1300.11 52.9248C1300.11 62.2733 1302.36 69.4799 1306.86 74.5446Z" fill="#B90000"/>
<path d="M410.615 2.03448C409.745 4.41997 408.717 6.72665 407.51 8.94737C403.161 17.0064 396.937 23.3319 388.873 27.9023C380.787 32.4727 371.342 34.7794 360.511 34.7794C349.679 34.7794 340.17 32.4727 331.983 27.9023C323.818 23.3319 317.551 17.0064 313.203 8.94737C311.995 6.71949 310.967 4.4128 310.098 2.03448H339.667C339.983 2.47147 340.321 2.90128 340.695 3.31677C345.18 8.38145 351.785 10.903 360.503 10.903C369.222 10.903 375.784 8.38145 380.233 3.31677C380.593 2.90128 380.945 2.47147 381.261 2.03448H410.615Z" fill="#B90000"/>
<path d="M414.036 92.9193C414.036 96.759 413.741 100.448 413.109 103.973H385.631C386.501 100.699 386.917 96.9954 386.917 92.9193C386.917 83.5779 384.682 76.3928 380.233 71.364C375.784 66.3566 369.2 63.8565 360.503 63.8565C351.807 63.8565 345.187 66.3566 340.695 71.364C336.188 76.3856 333.931 83.5779 333.931 92.9193C333.931 96.9954 334.362 100.699 335.218 103.973H307.582C306.949 100.448 306.655 96.759 306.655 92.9193C306.655 82.8902 308.832 73.8497 313.195 65.8122C317.544 57.7531 323.811 51.4491 331.976 46.8572C340.163 42.2868 349.65 40.0016 360.503 40.0016C371.357 40.0016 380.787 42.2868 388.865 46.8572C396.93 51.4491 403.154 57.7531 407.502 65.8122C411.851 73.8497 414.029 82.8902 414.029 92.9193H414.036Z" fill="#B90000"/>
<path d="M532.004 14.8788C532.004 25.0082 529.827 34.0845 525.464 42.1436C521.115 50.1811 514.905 56.5066 506.827 61.077C498.741 65.6689 489.296 67.9541 478.458 67.9541C467.619 67.9541 458.117 65.6689 449.952 61.077C441.765 56.5066 435.505 50.1811 431.157 42.1436C426.808 34.0845 424.63 25.001 424.63 14.8788C424.63 10.4087 425.062 6.13207 425.938 2.03448H453.747C452.518 5.73807 451.907 10.0148 451.907 14.8788C451.907 24.2345 454.164 31.4268 458.649 36.4915C463.155 41.5561 469.761 44.0992 478.458 44.0992C487.154 44.0992 493.738 41.5561 498.187 36.4915C502.636 31.4268 504.872 24.2345 504.872 14.8788C504.872 10.0148 504.261 5.73807 503.053 2.03448H530.703C531.573 6.13207 532.012 10.4087 532.012 14.8788H532.004Z" fill="#B90000"/>
<path d="M527.814 103.966H497.627C493.199 99.3378 486.817 97.0311 478.45 97.0311C470.084 97.0311 463.687 99.3378 459.217 103.966H428.792C429.482 102.268 430.272 100.613 431.142 98.9796C435.491 90.9206 441.758 84.6166 449.937 80.0247C458.102 75.4543 467.612 73.1691 478.443 73.1691C489.275 73.1691 498.726 75.4543 506.812 80.0247C514.898 84.6166 521.101 90.9206 525.449 98.9796C526.319 100.613 527.11 102.268 527.8 103.966H527.814Z" fill="#B90000"/>
</g>
<defs>
<clipPath id="clip0_1_37">
<rect width="1380" height="106" fill="white"/>
</clipPath>
</defs>
</svg>
